<?xml version="1.0" encoding="UTF-8"?>
<svg id="Capa_1" data-name="Capa 1" xmlns="http://www.w3.org/2000/svg" version="1.1" xmlns:xlink="http://www.w3.org/1999/xlink" viewBox="0 0 1165 1195.5">
  <defs>
    <style>
      .cls-1 {
        filter: url(#drop-shadow-3);
      }

      .cls-2 {
        fill: #31C48D;
        stroke-width: 0px;
      }
    </style>
    <filter id="drop-shadow-3" filterUnits="userSpaceOnUse">
      <feOffset dx="7" dy="7"/>
      <feGaussianBlur result="blur" stdDeviation="5"/>
      <feFlood flood-color="#595959" flood-opacity=".3"/>
      <feComposite in2="blur" operator="in"/>
      <feComposite in="SourceGraphic"/>
    </filter>
  </defs>
  <g class="cls-1">
    <path class="cls-2" d="M10.97,1085.39c7.12-24.34,8.95-49.68,13.93-74.42,1.37-6.78,2.15-13.7,3.75-20.42,2.59-10.84,10.58-16.67,19.79-15,9.94,1.81,15.81,10.36,14,21.57-4.84,30-9.98,59.95-15,89.91-4.05,24.15,4,33.81,28.5,33.81,166.81.03,333.62.02,500.42.02h181.45c4.13,0,8.26,0,12.39,0,.46-4.76-2.9-6.06-4.78-8.2-13.88-15.8-13.52-35.55.75-51,3.2-3.46,9.56-5.82,7.87-11.69-2.1-7.31-5.24-14.46-8.99-21.08-1.73-3.05-6.46-1.43-9.84-1.51-25.73-.62-39.48-14.65-39.61-40.59-.05-11.17-.11-22.34.02-33.52.26-23.52,14.52-37.98,38.26-38.36,6.89-.11,12.84.02,14.88-8.6,2.05-8.62,9.55-15.75-1.29-25.33-17.14-15.15-16.34-36.46-.42-52.98,8.55-8.87,17.27-17.6,26.16-26.14,16.13-15.5,35.84-15.4,52.63-.24,3.31,2.99,5.83,9.13,10.54,7.96,7.73-1.92,15.08-5.7,22.27-9.33,2.53-1.28,1.51-4.96,1.35-7.54-.63-10.28,1.42-19.86,7.69-29.14-7.17-3.95-14.63-5.13-21.81-7.12-24.45-6.79-48.96-13.36-73.27-20.63-6.15-1.84-9.66-.87-13.8,3.93-28.21,32.64-56.83,64.92-85.1,97.5-25.48,29.36-51.8,36.67-88.78,24.16-21.85-7.39-43.76-14.62-65.52-22.28-6.15-2.17-11.68-2.24-17.82-.07-22.83,8.08-45.76,15.9-68.72,23.62-31.78,10.7-59.29,3.86-81.62-21.23-29.7-33.38-59.13-67-88.34-100.81-4.73-5.47-8.81-6.6-15.74-4.56-29.13,8.57-58.6,15.99-87.7,24.69-58.67,17.53-88.91,58.68-96.77,118.09-1.46,11.05-3.29,22.08-5.43,33.02-2.38,12.16-10.57,18.25-21.03,16.33-9.8-1.8-14.96-9.75-13.06-21.99,3.13-20.13,5.5-40.54,10.68-60.17,15.9-60.25,54.28-100.33,113.91-118,68.55-20.31,137.66-38.72,206.58-57.78,4.73-1.31,10.22-2.57,14.73-1.41,8.75,2.25,12.39-2.01,14.13-8.98,5.69-22.78,1.88-46,2.56-69.01.1-3.51-3.56-4.79-6.02-6.47-51.9-35.3-82.27-84.19-91.79-146.04-1.01-6.56-2.94-9.46-9.9-11.01-27.64-6.18-43.9-27.17-44.18-55.63-.11-10.79.3-21.58-.09-32.36-.69-19.13,4.52-35.81,19.31-48.62,3.48-3.01,3.15-5.91,2.9-10.08-2.8-47.28-5.47-94.98.53-141.78,6.81-53.13,41.17-85.38,92.95-98.07,44.05-10.8,88.35-20.62,132.52-30.94.55-.13.91-1.11,1.36-1.69,15.41,0,30.82,0,46.23,0,29.36,6.95,58.71,13.93,88.07,20.84,19.84,4.67,39.8,8.84,59.52,13.93,32.97,8.52,57.86,27.92,74.62,57.58,6.72,11.89,5.12,21.72-4.09,27.28-9.32,5.63-18.95,2.46-25.68-9.39-13.6-23.97-33.98-37.81-60.76-43.62-44.33-9.62-88.48-20.07-132.77-29.9-25.7-5.7-50.38.78-75.12,6.89-32.47,8.01-65.09,15.43-97.59,23.31-41.35,10.02-66.45,41.72-66.7,84.18-.15,26.19.25,52.39-.2,78.58-.15,8.54,2.24,9.45,9.89,7,75.4-24.16,152.61-35.87,231.91-33.5,63.9,1.9,126.17,12.77,187.04,32.06,14.12,4.48,14.1,4.54,14.12-10.7.02-11.94-.26-23.89.13-35.82.43-13.23,6.62-20.12,17.27-20.17,10.71-.05,17.82,7.04,17.6,19.85-.49,28.44,2.57,56.99-1.95,85.3-.74,4.67,1.01,6.98,4.03,9.75,12.3,11.33,18.07,25.47,17.81,42.22-.2,13.09.13,26.2-.08,39.29-.45,27.72-16,47.72-42.93,54.05-7.65,1.8-9.93,4.86-11.14,12.65-9.25,59.62-38.24,107.42-88,141.98-6.75,4.69-9.75,9.51-9.38,17.85.69,15.38.25,30.81.21,46.22-.02,6.68,1.37,12.97,4.51,18.89,1.52,2.87,3.15,5.51,7,4.54,11.95-3.01,22.83,1.76,33.83,4.83,65.54,18.24,131.04,36.65,196.5,55.17,7,1.98,14.06,4.36,20.46,7.74,13.87,7.32,27.07,14.05,43.95,14.33,18.02.3,29.62,16.66,29.99,36.24.13,6.96-1.08,13.78,8.67,16.05,8.94,2.08,16.09,9.92,26.05-1.34,15.27-17.26,36.28-16.12,52.9.09,8.27,8.07,16.41,16.28,24.52,24.51,17.19,17.45,17.52,37.58.44,55.05-4.94,5.06-8.73,9.25-4.2,16.63,4.42,7.21,3.88,17.28,17.76,16.67,23.94-1.06,38.68,14.77,39.07,38.76.19,11.55.23,23.12-.01,34.67-.49,23.34-15.22,38.1-38.49,38.59-6.59.14-12.89-.9-15,8.26-1.99,8.63-9.91,15.61.81,25.3,17.67,15.97,16.83,36.74.11,53.85-8.35,8.54-16.76,17.02-25.33,25.33-16.64,16.13-36.41,15.97-53.28-.04-4.1-3.89-7.18-10.98-15-5.74-7.71,5.16-20.22,3.55-19.41,19.46,1.22,23.74-14.2,37.84-37.93,38.02-12.33.09-24.66.18-36.98-.03-16.73-.29-30.58-9.5-34.32-25.55-2.32-9.94-7.36-10.18-15.22-10.17-233.44.14-466.88.11-700.32.11-29.28,0-58.56-.4-87.83.11-30.9.54-53.85-10.73-65.29-40.89-.34-.9-1.59-1.45-2.41-2.16,0-9.25,0-18.49,0-27.74ZM771.83,323.67c-22.06,26.21-46.2,29.27-74.88,20.34-46.42-14.46-94.32-21.79-142.97-23.71-67.49-2.66-133.49,6.28-198.09,25.83-10.12,3.06-20.2,4.18-30.69,1.92-13.93-3-24.55-11.38-35.33-22.92-2.44,15.7-1.14,29.07-1.25,42.35-.17,19.61,6.84,26.5,26.21,26.64,20.61.15,24.92,4.38,26.26,24.65,3.45,52.3,24.94,95.46,66.26,128.1,88.02,69.52,214.53,54.16,279.14-33.77,21.6-29.4,31.98-62.73,33.99-98.89.79-14.24,6.59-19.84,20.96-20.07,3.85-.06,7.73.22,11.54-.15,10.54-1.02,18.37-8.2,18.71-18.47.53-16.12.14-32.27.14-51.85ZM1081.15,853.76c-1.25-1.4-2.68-3.15-4.26-4.75-5.41-5.48-11.28-10.58-16.21-16.45-5.61-6.68-9.6-7.44-16.26-.47-14.13,14.8-27.06,16.55-46.02,8.31-5.29-2.3-10.58-4.61-15.99-6.6-16.86-6.23-25.4-18.72-25.08-36.2.19-10.08-2.41-14.42-12.75-12.59-2.24.4-4.62-.09-6.92.09-7.21.55-15.71-2.81-21.27,1.59-4.51,3.56-.95,11.64-1.88,17.66-4.6,29.48-55.48,51.09-80.17,34.26-5.54-3.78-9-13.47-15.82-11.33-6.24,1.96-10.75,9.45-16.01,14.51-1.11,1.07-2.05,2.36-3.29,3.24-8.96,6.3-8.64,11.33-.52,19.43,21.56,21.52,4.86,76.46-24.86,84.09-.74.19-1.54.21-2.26.44-6.75,2.14-16.62-3.48-20.14,3.52-3.12,6.2-.95,15.06-1.11,22.74-.02,1.16.16,2.34-.03,3.46-1.79,10.67,1.63,15.27,13.39,14.19,13.85-1.27,25.03,5.22,31.43,17.45,5.49,10.49,9.72,21.73,13.6,32.96,3.98,11.49.52,22.06-6.82,31.3-11.25,14.18-11.35,14.1,1.9,27.36q14.08,14.09,29.31,2.56c1.53-1.16,3.16-2.21,4.84-3.13,23.25-12.72,69.48,8.13,76.22,33.66,1.92,7.28-4.9,17.77,4.71,21.37,7.1,2.66,15.98.58,24.07.61.39,0,.78-.05,1.15,0,9.23,1.35,13.24-.79,13.31-11.93.21-30.78,46.86-57.99,74.88-44.6,1.38.66,2.63,1.63,4.03,2.23,6.88,2.94,9.88,14.72,17.66,11.98,6.91-2.43,11.81-10.6,17.6-16.24,1.1-1.08,2.06-2.34,3.29-3.24,6.79-4.92,7.59-9.39.41-15.16-7.03-5.65-12.3-13.17-12.65-22.55-.8-21.41,8.45-39.41,21.06-55.74,3.98-5.15,10.61-7.3,17.17-8.83,6.86-1.6,16.44,3.65,20.18-3.44,3.05-5.79.98-14.29,1.15-21.59.05-2.31-.28-4.67.06-6.93,1.38-9.21-2.46-11.82-11.58-11.71-20.66.25-30.97-7.51-38.34-26.72-1.65-4.3-3.28-8.62-5.14-12.84-8.88-20.14-6.76-32.32,8.36-48.22,2.04-2.15,5-3.69,5.6-7.75ZM635.4,693.15c-4.03-8.47-8.03-15.53-10.85-23.03-6.41-17.08-3.47-35.02-3.69-52.62-.1-8.33-1.98-9.66-9.97-6.71-52.03,19.21-104.38,20.06-156.83,1.4-13.29-4.73-13.54-4.66-13.28,9.45.43,23.59.98,47.17-13.92,67.52-3.67,5.01.63,6.87,3.14,9.27,31.47,29.99,63.07,59.85,94.48,89.91,3.98,3.81,6.75,4.99,11.32.6,31.65-30.36,63.53-60.49,95.3-90.73,1.86-1.77,4.52-3.18,4.3-5.08ZM522.92,245.9c-11.51-.14-31.5.64-51.45,2.59-51.5,5.03-101.75,15.73-150.81,32.21-5.96,2-7.83,4.36-6.27,10.72,4.95,20.16,14.62,26.23,34.55,20.46,52.69-15.26,106.3-24.72,161.22-26.45,69.08-2.18,136.59,7.09,202.79,26.74,18.18,5.4,27.7-.52,33.02-18.35,2.28-7.65,1.47-10.9-7.1-13.73-67.4-22.26-136.37-34.39-215.95-34.19ZM313.62,723.39c29.83,33.82,58.38,66.58,87.43,98.87,7.57,8.41,18.43,12.3,29.48,9.97,22.49-4.74,43.65-13.88,65.45-21.13-.7-1.86-.77-2.73-1.24-3.18-35.14-33.47-70.33-66.87-105.42-100.38-3.14-3-6.01-3.83-10.31-2.57-21.02,6.13-42.14,11.92-65.38,18.43ZM747.18,723.26c-23.07-6.49-44.14-12.3-65.13-18.4-4.28-1.24-7.15-.24-10.27,2.73-33.92,32.37-67.88,64.7-102.02,96.84-6,5.65-3.79,7.34,2.65,9.41,16.44,5.27,32.65,11.23,49.07,16.56,16.26,5.27,30.3,1.34,41.73-11.39,9.24-10.3,18.39-20.67,27.51-31.08,18.43-21.05,36.81-42.14,56.47-64.66Z"/>
    <path class="cls-2" d="M358.37,1031.59c-20.39,0-40.78.11-61.17-.03-21.5-.15-31.91-10.56-32.04-31.82-.08-13.08-.17-26.16.03-39.24.26-17.32,10.37-29,27.51-29.23,43.85-.58,87.72-.62,131.56.04,17.11.26,27.22,11.91,27.69,29.29.35,13.07.21,26.16.05,39.24-.25,20.53-10.89,31.43-31.31,31.69-20.77.26-41.55.06-62.32.06ZM358.85,996.88c12.7,0,25.41,0,38.11,0,20.67,0,20.13-.01,20.6-20.82.21-9.32-3.38-10.64-11.44-10.52-28.09.43-56.2.17-84.3.17-22.77,0-22.4,0-22.18,22.54.08,7.56,2.96,8.89,9.55,8.74,16.54-.36,33.1-.12,49.65-.12Z"/>
    <path class="cls-2" d="M851.88,970.73c.14-46.69,37.89-84.27,84.52-84.11,46.27.15,84.54,38.67,84.26,84.82-.27,46.44-38.35,84.07-84.99,83.98-46.7-.09-83.94-37.73-83.8-84.69ZM886.59,970.64c-.18,27.91,21.6,50.04,49.27,50.08,27.45.03,50.18-22.54,50.09-49.76-.08-26.62-22.5-49.23-49.21-49.62-27.54-.41-49.98,21.65-50.15,49.31Z"/>
  </g>
</svg>