<?xml version="1.0" encoding="UTF-8"?>
<svg id="Capa_1" data-name="Capa 1" xmlns="http://www.w3.org/2000/svg" fill="currentColor" version="1.1" xmlns:xlink="http://www.w3.org/1999/xlink" viewBox="0 0 1200 1152">
  <defs>
    <style>
      .cls-1 {
        filter: url(#drop-shadow-2);
        color: #76A9FA;
      }

      .cls-2 {
        fill: #76A9FA;
        stroke-width: 0px;
      }
    </style>
    <filter id="drop-shadow-2" filterUnits="userSpaceOnUse">
      <feOffset dx="7" dy="7"/>
      <feGaussianBlur result="blur" stdDeviation="5"/>
      <feFlood flood-color="#595959" flood-opacity=".3"/>
      <feComposite in2="blur" operator="in"/>
      <feComposite in="SourceGraphic"/>
    </filter>
  </defs>
  <g class="cls-1">
    <path class="cls-2" d="M6.65,47.46c3.81-2.17,3.61-6.51,5.31-9.82C22.69,16.75,39.42,3.78,63.17,3.55c60.26-.59,120.55-.75,180.81.06,43.97.59,84.1,33.62,96.21,77.5,5.02,18.21,9.7,36.54,13.53,55.03,1.56,7.51,4.95,8.95,11.75,8.88,28.97-.3,57.95-.13,86.93-.13,238.38,0,476.76,0,715.14,0,7.33,0,14.86-.78,20.68,5.12,5.79,5.88,5.95,12.64,4.09,20.38-34.75,144.33-69.33,288.71-103.95,433.07-.9,3.75-1.89,7.47-2.75,11.23-2.6,11.31-9.96,15.27-21.17,15.3-62.19.16-124.38.85-186.58,1.02-131.36.36-262.71.62-394.07.54-8.8,0-11.51,2.8-13.08,11-7.18,37.36-35.14,61.09-73.57,63.37-15.54.92-26.01,10.64-25.94,24.09.07,12.94,10.06,22.47,25.11,23.74,3.84.32,7.72.14,11.58.14,112.04,0,224.08,0,336.13.02,4.25,0,8.54-.17,12.73.34,8.9,1.09,13.83,6.76,14.73,15.31.86,8.17-3.09,14.33-10.78,17.27-3.5,1.34-7.53,1.79-11.32,1.79-117.45.09-234.9.2-352.35-.03-27.32-.05-48.74-15.4-57.12-39.3-8.21-23.41-1.77-47.49,17.26-63.98,9.96-8.63,21.63-13.27,34.77-14.06,34.41-2.08,51.27-24.65,43.03-58.27-27.88-113.85-55.91-227.66-83.87-341.49-14.35-58.41-28.62-116.84-42.99-175.25-9.08-36.91-35.71-58.03-73.4-58.08-55.63-.08-111.27.05-166.9-.08-10.24-.02-18.09,3.91-23.1,12.66-4.58,8-4.35,16.38.61,24.2,5.73,9.06,14.5,11.85,24.87,11.82,53.32-.14,106.63-.08,159.95-.05,21.01,0,26.74,4.66,31.86,25.55,10.19,41.57,20.43,83.12,30.55,124.71,2.99,12.28-1.63,21.51-11.58,23.9-10.6,2.55-18.75-2.67-21.86-15.02-9.4-37.39-18.73-74.81-27.5-112.35-2.06-8.82-4.99-12.37-15.02-12.22-46.74.7-93.5-.28-140.24.52-32.1.55-55.39-11.06-67.27-41.99-.35-.91-1.58-1.47-2.4-2.2,0-10.05,0-20.09,0-30.14ZM760.63,179.78c-25.1,0-50.21.24-75.3-.15-7.15-.11-9.46,1.92-8.75,9.15,3.2,33.02,6.11,66.08,8.86,99.14.43,5.15,1.77,7.46,7.47,7.43,44.8-.2,89.59-.15,134.39-.05,4.62.01,6.88-1.07,7.31-6.28,2.77-33.45,5.73-66.89,8.97-100.3.71-7.3-1.67-9.23-8.81-9.11-24.71.4-49.43.15-74.14.16ZM759.54,330.14c-20.06,0-40.13.28-60.18-.15-7.6-.16-10.57.76-9.6,9.89,3.33,31.42,5.66,62.96,7.91,94.49.56,7.89,2.54,11.54,11.52,11.4,33.94-.52,67.9-.39,101.85-.06,7.09.07,10.55-1.75,11.12-9.26,2.47-32.67,5.11-65.33,8.08-97.96.63-6.93-1.82-8.54-8.2-8.45-20.83.29-41.67.11-62.5.1ZM448.87,295.25c16.2,0,32.41-.29,48.59.13,7.21.19,8.49-2.58,7.2-8.93-6.64-32.83-13.2-65.67-19.46-98.57-1.12-5.88-3.09-8.32-9.56-8.26-33.94.33-67.88.38-101.82-.01-8.13-.1-8.9,2.96-7.22,9.59,8.2,32.47,16.42,64.93,24.08,97.53,1.55,6.58,4.08,8.83,10.75,8.65,15.8-.42,31.62-.14,47.44-.14ZM1000.8,179.79c-39.08,0-77.24.06-115.4-.07-4.95-.02-6.63,1.9-7.03,6.72-2.81,33.82-5.79,67.63-8.92,101.42-.51,5.5,1.03,7.52,6.78,7.49,31.65-.21,63.31-.21,94.96,0,5.26.04,7.72-1.86,8.67-6.84,6.86-35.89,13.81-71.76,20.94-108.73ZM580.6,179.78c-17.76,0-35.52.11-53.28-.07-5.43-.05-8.33.09-6.81,7.42,6.95,33.58,13.22,67.3,19.63,101,.92,4.84,2.89,7.26,8.37,7.23,31.66-.21,63.31-.24,94.97.01,6.49.05,7.57-2.3,7-8.26-3.13-33.02-6.05-66.07-8.57-99.14-.5-6.6-2.89-8.43-9.19-8.3-17.37.35-34.74.12-52.12.12ZM1071.03,295.26c15.45,0,30.91-.31,46.35.15,6.48.19,9.7-1.54,11.23-8.22,7.51-32.69,15.28-65.32,23.4-97.86,1.84-7.39,1-9.85-7.39-9.74-32.83.46-65.67.36-98.51.05-6.85-.07-10.18,1.43-11.55,8.86-5.99,32.61-12.52,65.13-19.13,97.62-1.5,7.35.68,9.51,8.08,9.29,15.82-.48,31.67-.15,47.51-.15ZM457.9,330.14c-15.83,0-31.66.29-47.48-.13-6.99-.19-8.74,2.15-7.1,8.68,8.35,33.26,16.63,66.53,24.64,99.87,1.21,5.04,3.3,7.09,8.51,7.07,30.5-.15,61-.2,91.49.03,6.83.05,7.33-2.49,6.11-8.42-6.73-32.84-13.32-65.72-19.28-98.71-1.28-7.07-4.11-8.66-10.57-8.51-15.43.37-30.88.12-46.32.12ZM1062.86,330.14c-15.81,0-31.62.17-47.43-.09-5.77-.09-8.75.94-9.98,7.71-6.07,33.32-12.66,66.55-19.6,99.7-1.65,7.87,1.8,8.19,7.72,8.16,29.31-.15,58.62-.21,87.92.05,6.43.06,9.37-1.68,10.92-8.48,7.54-33.01,15.57-65.92,23.85-98.75,1.85-7.32-.65-8.54-7.13-8.4-15.42.32-30.85.1-46.27.1ZM760.1,480.35c-16.58,0-33.17.27-49.74-.13-6.81-.17-8.56,2.18-7.94,8.71,3.19,33.36,6.22,66.74,8.86,100.15.5,6.3,3.07,7.59,8.64,7.54,26.6-.23,53.21-.31,79.81-.1,6.31.05,8.64-1.97,9.15-8.48,2.59-33.02,5.56-66.02,8.73-99,.62-6.48-.87-8.98-7.79-8.81-16.57.4-33.16.13-49.74.13ZM491.49,480.36c-14.29,0-28.59.36-42.85-.14-7.96-.28-10.17,2.23-8.21,9.95,8.33,32.87,16.51,65.78,24.35,98.77,1.39,5.87,3.46,8.26,9.81,8.17,27.41-.38,54.83-.45,82.24-.15,7,.08,8.09-1.73,6.72-8.46-6.79-33.23-13.13-66.55-19.32-99.9-1.25-6.76-4.54-8.59-11.04-8.39-13.89.44-27.8.13-41.7.14ZM1005.52,595.38v-.31c13.88,0,27.77-.2,41.65.11,5.09.11,7.8-1.51,8.98-6.53,7.87-33.34,15.83-66.66,23.86-99.96,1.38-5.72.38-8.49-6.43-8.43-29.69.26-59.39.18-89.09.04-4.62-.02-7.22,1.56-8.1,6.14-6.46,33.65-12.9,67.3-19.55,100.91-1.25,6.3.94,8.22,7.02,8.11,13.88-.25,27.77-.08,41.65-.08ZM919.45,330.14c-15.04,0-30.08.32-45.1-.15-6.59-.21-8.8,2.41-9.27,8.46-2.59,33.03-5.25,66.05-8.16,99.05-.55,6.21,1.57,8.18,7.6,8.13,25.44-.19,50.89-.21,76.33.02,6.12.06,8.6-1.89,9.77-8.23,6.08-32.92,12.47-65.79,19.43-98.53,1.72-8.09-.99-9.05-7.81-8.87-14.25.37-28.53.11-42.79.11ZM601.45,330.14c-15.03,0-30.07.12-45.1-.06-5.09-.06-8.02.62-6.73,6.98,6.9,33.93,13.67,67.89,20.12,101.91,1.06,5.6,3.9,6.65,8.71,6.64,25.83-.09,51.65-.12,77.48.02,5.3.03,7.78-1.47,7.26-7.31-3-33.76-5.85-67.53-8.6-101.3-.43-5.34-2.66-7.1-8.04-6.98-15.03.34-30.06.12-45.1.12ZM897.33,480.36c-12.35,0-24.69.05-37.04-.03-4.17-.03-7.25.2-7.71,5.82-2.81,34.19-5.92,68.36-9.03,102.52-.48,5.27.98,7.75,6.83,7.67,20.83-.29,41.67-.26,62.5-.22,4.47,0,6.85-1.31,7.79-6.23,6.52-34.04,13.34-68.02,20.13-102.01,1.09-5.45-.6-7.74-6.43-7.6-12.34.29-24.69.09-37.04.09ZM624.21,480.35c-12.35,0-24.7.26-37.04-.11-6.53-.2-9.17,1.63-7.77,8.54,6.8,33.6,13.54,67.21,19.88,100.9,1.13,5.99,3.78,7.24,9.25,7.16,19.68-.29,39.37-.56,59.03-.01,8.21.23,9.65-2.88,8.95-10.1-3.19-33-6.22-66.02-8.84-99.07-.51-6.43-3.33-7.5-8.75-7.39-11.57.24-23.15.07-34.73.08Z"/>
    <path class="cls-2" d="M1053.03,872.14c75.5,67.73,71.34,170.96,10.77,231.22-60.6,60.29-158.26,60.65-219.18.94-61.23-60.02-66.05-164,8.53-230.97h-233.35c.52,4.11,4.64,6.05,7.33,8.75,47.24,47.37,59.88,116.68,32.01,176.31-27.98,59.87-89.42,95.8-155.17,89.94-33.6-3-63.44-15.75-88.96-38.08-10.42-9.12-12.16-18.65-5.05-27.12,6.99-8.32,16.96-8.62,27.49.58,41.65,36.35,100.92,39.58,145.25,11.24,47.13-30.12,67.66-89.31,49.11-142.07-18.86-53.65-71.96-86.43-129.5-79.95-53.44,6.02-97.11,49.89-104.49,104.08-2.35,17.25-.5,33.83,3.73,50.42,3.33,13.04-.73,22.01-11.32,25.08-10.2,2.96-18.54-2.84-22.2-16.21-15.02-54.86-3.43-103.8,33.34-146.9,4.49-5.27,9.82-9.81,16.39-16.3-13.7-.81-25.69-1.1-37.6-2.29-62.1-6.19-113.32-53.34-124.95-114.7-11.64-61.44,18.79-124.56,74.68-152.06,11.97-5.89,14.41-11.18,11.15-24.1-21.93-86.72-42.85-173.7-64.1-260.59-.37-1.5-.91-2.96-1.19-4.47-2.43-12.83,2.03-21.78,11.9-24,10.91-2.45,19.03,3.32,22.27,16.36,9.3,37.42,18.47,74.88,27.62,112.33,14.37,58.81,28.66,117.63,43.01,176.44,4.93,20.21,2.05,25.46-17.39,31.4-47.62,14.53-80.46,63.28-74.81,111.05,6.51,55.08,46.18,94.41,98.81,97.86,6.55.43,13.12.56,19.69.56,231.43.03,462.85.03,694.28-.01,5.39,0,10.88.05,16.16-.87,11.8-2.06,19.21-11.86,18.88-24.1-.32-12.05-8.5-21.35-20.46-22.77-4.58-.55-9.26-.41-13.89-.41-88.48-.02-176.95-.02-265.43-.02-2.7,0-5.41.06-8.11-.01-13.7-.35-21.5-6.57-21.74-17.31-.24-10.69,7.58-17.43,21.11-17.87,6.95-.23,13.91-.06,20.86-.06,85.77,0,171.54.15,257.31-.09,24.68-.07,44.78,8.08,57.59,29.85,23.26,39.55-5.12,87.65-52.38,88.86-18.37.47-36.76.08-58.04.08ZM953.2,872.23c-66.74.29-120.85,54.54-120.71,121.04.14,66.65,55.33,121.03,122.43,120.65,65.68-.38,119.95-54.89,120.1-120.63.15-67.01-54.54-121.35-121.82-121.06Z"/>
    <path class="cls-2" d="M517.41,1077.16c-46.9-.1-84.34-37.79-84.19-84.77.15-45.96,38.01-83.82,84.11-84.12,46.13-.3,84.9,38.33,84.93,84.63.03,46.54-38.04,84.36-84.85,84.26ZM517.63,1042.35c27.38,0,49.48-21.77,49.78-49.07.29-26.73-22.15-49.57-49.16-50.04-27.19-.47-50.39,22.63-50.23,50.01.16,27.23,22.25,49.1,49.61,49.11Z"/>
    <path class="cls-2" d="M953.54,1077.15c-46.71-.09-84.61-38.18-84.32-84.72.29-45.85,38.24-83.77,84.21-84.14,46.1-.37,84.78,38.21,84.83,84.61.04,46.65-37.86,84.35-84.72,84.25ZM953.48,1042.36c27.29.09,49.54-21.52,49.95-48.54.42-27.34-22.03-50.32-49.4-50.59-27.07-.26-50.14,22.83-49.99,50.05.14,27,22.29,48.99,49.44,49.08Z"/>
  </g>
</svg>