<?xml version="1.0" encoding="UTF-8"?>
<svg id="Capa_1" data-name="Capa 1" xmlns="http://www.w3.org/2000/svg" version="1.1" xmlns:xlink="http://www.w3.org/1999/xlink" viewBox="0 0 1200 1169.12">
  <defs>
    <style>
      .cls-1 {
        filter: url(#drop-shadow-4);
      }

      .cls-2 {
        fill: #AC94FA;
        stroke-width: 0px;
      }
    </style>
    <filter id="drop-shadow-4" filterUnits="userSpaceOnUse">
      <feOffset dx="7" dy="7"/>
      <feGaussianBlur result="blur" stdDeviation="5"/>
      <feFlood flood-color="#595959" flood-opacity=".3"/>
      <feComposite in2="blur" operator="in"/>
      <feComposite in="SourceGraphic"/>
    </filter>
  </defs>
  <g class="cls-1">
    <path class="cls-2" d="M12.15,616.51c7.13-11.98,17.43-16.23,31.5-16.07,52.8.62,105.62.22,158.43.26,21.67.01,29.96,8.26,30.08,29.68q.13,24.89,25.16,24.89c62.38,0,124.76.05,187.13-.07,7.41-.01,14.22,1.34,21.11,4.2,73.71,30.66,147.04,62.3,221.41,91.3,78.9,30.77,92.46,127.4,31.26,179.95-1.61,1.38-4.06,2.34-3.7,6.21,30.95,10.29,63.18,14.13,95.47,8.95,66.42-10.65,131.23-29.06,196.94-43.2,20.16-4.34,40.18-9.35,60.37-13.53,52.74-10.92,103.76,20.9,117.28,72.87,13.54,52.04-16.12,105.93-68.76,120.51-62.55,17.32-125.67,32.65-188.65,48.38-38.51,9.62-76.53,21.42-115.79,27.87-47.46,7.8-93.87,2.84-138.68-14.22-54.61-20.79-108.84-42.57-163.29-63.8-8.72-3.4-15.54-8.36-17.4-18.04-3.6-18.75,13.07-32.59,31.65-25.64,28.26,10.57,56.23,21.91,84.33,32.92,24.89,9.76,49.85,19.35,74.67,29.29,52.51,21.03,105.5,20.51,159.64,6.2,84.19-22.25,168.73-43.14,253.13-64.6,9.7-2.47,18.97-5.78,26.79-12.42,19.43-16.49,25.14-42.99,13.98-65.49-11.31-22.79-35.86-34.39-61.66-28.54-76.74,17.38-153.4,35.1-230.14,52.43-53.24,12.02-105.79,8.82-156.81-10.37-75.08-28.24-149.79-57.46-224.63-86.33-12.93-4.99-19.21-13.81-17.8-24.81,1.43-11.16,8.03-17.83,18.85-20.44,6.38-1.54,12.01,1.17,17.7,3.36,48.86,18.74,97.67,37.61,146.6,56.17,26.04,9.88,52.32,3.01,68.41-17.24,25.63-32.27,15.41-75.23-22.53-91.39-51.31-21.86-102.98-42.86-154.5-64.22-1.06-.44-2.22-.67-3.22-1.21-45.91-25.06-94.81-32.81-146.88-29.61-41.94,2.57-84.16.73-126.25.34-8.14-.07-11.14,1.41-11.1,10.49.39,79.21.4,158.43,0,237.65-.05,9.24,3.3,10.59,11.27,10.43,23.34-.45,46.68-.22,70.03-.11,4.57.02,9.22.21,13.68,1.1,10.92,2.17,18,11.02,18.08,21.93.09,11.41-7.23,21.2-18.81,22.32-13.28,1.29-26.73.87-40.1,1.01-11.86.13-23.73.03-35.59.03q-18.27,0-18.67,17.72c-.41,18.07-9.02,26.84-26.94,26.87-55.49.09-110.98-.18-166.47.19-12.81.08-20.63-6.07-26.59-16.24v-417.91ZM58.08,825.5c0,56.24-.01,112.48.02,168.71,0,5.03-1.84,10.61,7.26,10.51,37.87-.4,75.75-.25,113.62-.08,5.41.02,7.63-1.68,7.27-7.21-.57-8.76-1.04-17.56-1-26.34.51-103.66-1.36-207.32,1.09-310.97.23-9.72-1.33-14.08-12.78-13.8-34.79.85-69.63.66-104.43.07-9.3-.16-11.31,2.72-11.25,11.53.39,55.85.2,111.71.2,167.56Z"/>
    <path class="cls-2" d="M885.96,377.61c-.73,19.11-2.09,38.14-6.83,56.78-5.02,19.74-14.57,25.32-34.59,19.95-16.43-4.4-31.72.57-40.84,13.29-8.62,12.01-9.34,28.75-1.29,40.99,2.48,3.77,5.98,6.9,9.18,10.17,10.65,10.91,10.96,23.58.03,34.35-30.01,29.57-65.41,50-106.03,61.2-15.13,4.17-25.91-3.16-30.01-19.71-4.28-17.28-15.2-27.96-32.03-29.96-15.08-1.8-26.64,4.72-35.12,17.09-3.11,4.54-3.99,9.86-5.44,14.99-4.16,14.76-14.93,21.53-29.43,17.58-40.67-11.06-76-31.68-106.13-61.06-11.43-11.15-10.52-23.99,1.64-36.02,14.09-13.93,17.3-30.35,8.91-45.66-8.31-15.18-25.48-22-43.35-17.24-20.46,5.45-29.82-.29-34.78-21-9.17-38.27-8.79-76.48.38-114.68,4.12-17.16,15.66-23.99,32.33-19.16,19.21,5.56,35.92-.24,44.79-15.56,9.15-15.81,6.18-32.75-8.19-46.71-13.11-12.73-13.31-24.97-.32-37.53,29.42-28.44,63.86-48.25,103.21-59.46,15.77-4.49,26.87,2.04,31.2,18.01,5.78,21.32,17.68,31.68,36.32,31.65,19.2-.03,30.49-10.22,36.4-32.85,3.55-13.6,15.29-21.26,28.86-17.52,40.96,11.3,76.78,31.91,107.1,61.68,11.77,11.55,10.7,24.16-2.7,36.68-11.22,10.48-14.82,23.25-11.05,37.54,3.58,13.57,13.16,22.1,26.87,25.6,7.26,1.85,14.32.66,21.42-1.49,16.48-4.97,27.46,1.32,32,17.91,5.39,19.68,6.81,39.86,7.51,60.12ZM839.81,378.91c-.39-8.57-.95-16.2-1.03-23.85-.06-5.33-2.18-7.17-7.59-7.3-61.45-1.41-99.7-66.67-70.39-121.54,2.51-4.7,2.07-7.29-2.24-10.36-12.19-8.68-25.03-16.11-38.6-22.42-4.82-2.24-7.33-1.57-10.1,3.07-30.75,51.58-107.56,53.76-140.54.21-2.66-4.32-4.84-5.76-9.99-3.33-13.53,6.37-26.4,13.72-38.7,22.24-4.95,3.43-4.57,6.13-2.18,11.07,27.47,56.91-6.96,116.53-69.98,120.94-6.28.44-8.04,2.95-8.22,8.05-.4,11.45-1.04,22.93-.75,34.37.39,15.98.72,15.94,16.27,17.36,3.03.28,6.07.77,9.02,1.49,52.32,12.85,78.5,68.78,54.49,117.28-3.17,6.4-3.14,9.64,3,13.62,11.24,7.28,22.65,14.1,34.73,19.97,6.52,3.17,9.55,2.13,13.69-3.95,34.38-50.4,103.3-50.15,137.85.46,3.8,5.56,6.79,6.85,12.82,3.92,12.07-5.86,23.47-12.71,34.74-19.97,6.66-4.29,6.66-7.74,3.33-14.57-23.8-48.75,3.95-105.7,56.46-117.56,7.43-1.68,18,3.47,21.78-5.17,3.17-7.24,1.63-16.54,2.12-24.03Z"/>
    <path class="cls-2" d="M274.46,446.13c-4.72-26.2-6.65-50.19-5.56-74.24,6.46-142.28,71.33-249.76,196.35-317.62C607.53-22.96,784.11,4.64,897.63,119.87c79.67,80.88,114.92,179.44,105.7,292.35-7.08,86.78-42.6,161.82-103.28,224.62-13.18,13.64-26.23,15.2-36.89,4.62-9.76-9.69-8.27-23.61,3.76-36.3,67.71-71.41,98.52-156.43,90.76-254.36-10.95-138.33-114.35-255.56-249.97-285.53-183.53-40.55-361.48,80.89-389.72,266.25-5.27,34.59-4.82,69.28,1.98,106.59,5.05-7.29,8.68-12.74,12.53-18.03,8.77-12.02,22.03-14.95,32.93-7.4,10.91,7.55,13.15,20.98,4.84,33.41-13.38,20.03-27.04,39.88-40.91,59.57-8.43,11.97-19.29,14.66-31.94,7.51-21.29-12.04-42.37-24.46-63.25-37.2-12.25-7.47-15.51-20.38-8.96-31.62,6.53-11.21,19.43-14.54,31.88-8.07,5.03,2.61,9.87,5.58,17.36,9.85Z"/>
    <path class="cls-2" d="M797.82,655.33c12.65.08,22.46,9.77,22.64,22.34.18,12.86-10.3,23.57-22.98,23.49-11.95-.08-22.62-10.7-22.82-22.7-.21-12.91,10.11-23.21,23.16-23.13Z"/>
    <path class="cls-2" d="M439.12,1019.49c-.04,12.25-10.22,22.57-22.51,22.84-12.81.28-23.38-10.17-23.31-23.04.06-12.68,11.05-23.41,23.53-22.98,12.13.42,22.34,11.04,22.3,23.18Z"/>
    <path class="cls-2" d="M639.56,476.5c-54.93.01-99.29-44.21-99.4-99.07-.1-55.38,44.9-100.46,99.86-100.02,54.47.44,99.66,46.01,99.08,99.93-.59,55.12-44.79,99.15-99.55,99.16ZM586.1,376.32c-.28,29.62,22.88,53.77,52.04,54.25,29.95.49,54.51-23.04,54.98-52.67.46-29.54-23.57-54.09-53.38-54.54-28.67-.43-53.35,23.94-53.63,52.96Z"/>
  </g>
</svg>